<svg xmlns="http://www.w3.org/2000/svg" viewBox="0 0 48 48" fill="none" stroke="currentColor" stroke-width="2" stroke-linecap="round" stroke-linejoin="round">
  <!-- Phone receiver with signal waves -->
  <path d="M14 10 C14 10 12 14 14 18 L18 22 C20 24 22 24 24 22 L26 20 C28 18 28 18 30 20 L38 28 C40 30 40 32 38 34 L36 36 C34 38 30 38 26 34 C18 26 10 18 10 10 C10 6 14 6 14 10 Z"/>
  <path d="M30 10 C34 10 38 14 38 18" stroke-width="1.5"/>
  <path d="M30 14 C32 14 34 16 34 18" stroke-width="1.5"/>
</svg>